<?xml version="1.0" encoding="UTF-8"?>
<svg id="Layer_1" data-name="Layer 1" xmlns="http://www.w3.org/2000/svg" viewBox="0 0 127.9056 127.9056">
  <defs>
    <style>
      .cls-1 {
        fill: none;
      }

      .cls-2 {
        fill: #83cfee;
      }

      .cls-3, .cls-4 {
        fill: #db4140;
      }

      .cls-3, .cls-5, .cls-6 {
        fill-rule: evenodd;
      }

      .cls-7 {
        fill: #2da4dd;
      }

      .cls-8 {
        fill: #5dbbea;
      }

      .cls-5, .cls-9 {
        fill: #0a509f;
      }

      .cls-10 {
        fill: #fff;
      }

      .cls-6 {
        fill: #51b748;
      }

      .cls-11 {
        fill: #2c8ecd;
      }

      .cls-12 {
        fill: #414142;
      }
    </style>
  </defs>
  <rect class="cls-10" x="-.0472" y="-.0472" width="128" height="128"/>
  <g>
    <g>
      <g>
        <g>
          <path class="cls-6" d="M32.3184,40.3916c1.6128-3.1984,5.5146-4.4844,8.7131-2.8716,3.1983,1.6127,4.4843,5.5147,2.8715,8.713-1.6128,3.1984-5.5147,4.4844-8.713,2.8716-3.1985-1.6128-4.4844-5.5147-2.8716-8.7131"/>
          <path class="cls-6" d="M62.8625,46.6114c-8.6392-5.3631-16.5775-13.4573-27.709-25.0477-1.2253,1.1062-1.8996,2.4566-2.0392,4.044,7.0943,6.6197,16.4997,16.356,21.7311,25.3048.1247.2133.1448.4652.0735.6972-.0108.0384-.0244.0762-.0406.1134-.0042.0089-.0054.0187-.0098.0275-.0016.0032-.0038.0059-.0054.0092-.0016.0032-.0025.0066-.0041.0098-.0044.0088-.0115.0156-.0162.0242-.0203.0352-.0425.0685-.067.1001-.1441.1953-.3586.3289-.6042.3554-10.3057,1.1143-23.7262-.6594-33.2668-2.4277-1.2169,1.1089-1.7058,2.5418-2.0391,4.0439,20.9343,2.7047,33.7442,4.565,45.0673,11.6491l-1.0703-18.903Z"/>
        </g>
        <g>
          <path class="cls-3" d="M95.5872,40.3916c-1.6128-3.1984-5.5146-4.4844-8.7131-2.8716-3.1983,1.6127-4.4843,5.5147-2.8715,8.713,1.6128,3.1984,5.5147,4.4844,8.713,2.8716,3.1985-1.6128,4.4844-5.5147,2.8716-8.7131"/>
          <path class="cls-3" d="M65.0432,46.6114c8.6392-5.3631,16.5775-13.4573,27.709-25.0477,1.2253,1.1062,1.8996,2.4566,2.0392,4.044-7.0943,6.6197-16.4997,16.356-21.7311,25.3048-.1247.2133-.1448.4652-.0735.6972.0108.0384.0244.0762.0406.1134.0042.0089.0054.0187.0099.0275.0016.0032.0038.0059.0054.0092.0016.0032.0025.0066.0041.0098.0045.0088.0115.0156.0162.0242.0203.0352.0425.0685.067.1001.1441.1953.3586.3289.6042.3554,10.3057,1.1143,23.7262-.6594,33.2668-2.4277,1.2169,1.1089,1.7058,2.5418,2.0391,4.0439-20.9343,2.7047-33.7442,4.565-45.0673,11.6491l1.0703-18.903Z"/>
        </g>
      </g>
      <g>
        <path class="cls-5" d="M63.9528,21.8305c3.582,0,6.4871,2.905,6.4871,6.4871s-2.905,6.487-6.4871,6.487-6.4871-2.905-6.4871-6.487,2.905-6.4871,6.4871-6.4871"/>
        <path class="cls-5" d="M82.0407,15.8848c-1.5394-.596-3.0488-.5901-4.529,0-2.7166,9.3151-7.1755,22.0968-12.8105,30.7971-.1343.2074-.3502.3388-.5894.3795-.0392.0077-.079.0125-.1195.0148-.0099.0003-.0191.0036-.029.0036-.0035,0-.007-.0007-.0106-.0008-.0036,0-.007.0008-.0106.0008-.0099,0-.0191-.0033-.0289-.0036-.0405-.0023-.0803-.0071-.1195-.0148-.2393-.0407-.4551-.1721-.5894-.3795-5.635-8.7003-10.0938-21.4821-12.8105-30.7971-1.538-.5873-3.0376-.3787-4.529,0,9.3853,26.6547,13.568,39.6262,6.7125,59.6911h5.0316c.6987-1.9197,3.2993-5.9397,4.7855-8.4372.7456-1.2529,1.7901-1.2529,2.596,0,1.5723,2.4445,4.0963,6.5126,4.7866,8.4372h5.5513c-6.8555-20.0649-2.6729-33.0364,6.7125-59.6911Z"/>
      </g>
    </g>
    <g>
      <g>
        <path class="cls-9" d="M16.6575,104.6484h2.1978c.4,0,.7223.0547.9664.1633.2441.109.4295.2471.5561.415.1266.1676.2045.3558.2339.5647.0295.2089.0295.4105,0,.6048-.0291.2001-.0907.3926-.1843.5781-.0938.1852-.2183.3531-.3734.5031-.1551.15-.3336.2766-.5356.3795-.202.1029-.4231.1664-.6631.1898l1.368,2.8508h-1.0591l-1.2093-2.7537h-.9444l-.3795,2.7537h-.8473l.8738-6.2491ZM17.1166,107.4024h1.1121c.1646,0,.3294-.0133.4943-.0398.1646-.0264.3162-.075.4545-.1457.1381-.0704.2544-.1722.3487-.3045.094-.1324.1557-.3045.1853-.5161.0293-.2119.0146-.384-.0441-.5164-.0589-.1324-.1456-.2341-.2604-.3045-.1147-.0708-.2515-.1193-.4105-.1457-.1588-.0264-.3207-.0398-.4855-.0398h-1.1121l-.2824,2.0126Z"/>
        <path class="cls-9" d="M22.2268,104.6484h4.0337l-.1145.7945h-3.1789l-.2585,1.8623h2.9604l-.1146.7942h-2.9617l-.2851,2.0038h3.3437l-.106.7942h-4.1925l.8738-6.2491Z"/>
        <path class="cls-9" d="M37.7874,104.6484h.8474l-.8738,6.2491h-.8474l.8738-6.2491Z"/>
        <path class="cls-9" d="M40.3559,104.6484h1.2622l1.3239,4.7311h.0354l2.6301-4.7311h1.2622l-.8738,6.2491h-.8473l.7148-5.137h-.0176l-2.8244,5.137h-.5649l-1.3945-5.137h-.0178l-.7148,5.137h-.8474l.8738-6.2491Z"/>
        <path class="cls-9" d="M50.5503,104.6484h.7678l1.8007,6.2491h-.9885l-.4149-1.5447h-2.9744l-.8297,1.5447h-.9885l3.6276-6.2491ZM51.5124,108.6114l-.7592-2.8685h-.0176l-1.5887,2.8685h2.3655Z"/>
        <path class="cls-9" d="M59.0764,107.4024h.8472l-.4413,3.0804c-.1649.0941-.3502.1764-.5561.2472-.206.0704-.4164.1309-.631.1809-.2149.0498-.4311.0865-.6488.1102-.2177.0234-.4206.0352-.6088.0352-.5297,0-.9902-.088-1.3814-.2648-.3913-.1764-.7076-.4147-.9488-.715-.2413-.3-.4105-.6485-.5075-1.0459-.0971-.3971-.1134-.8164-.0486-1.2575.0647-.4648.2058-.8974.4237-1.2976.2175-.4001.4912-.7472.8208-1.0414.3294-.2942.706-.5252,1.1297-.6928.4237-.1679.8737-.2517,1.3504-.2517.5706,0,1.0312.0723,1.3813.2162.3501.1442.6282.3431.8341.596l-.6972.6443c-.2238-.2472-.4722-.4193-.7458-.5165-.2737-.0972-.5694-.1454-.8871-.1454-.359,0-.6928.0662-1.0017.1985-.3089.1324-.5811.3103-.8164.5337-.2354.2237-.4311.487-.587.79-.1559.3033-.2575.6254-.3045.9667-.0471.3531-.0295.681.053.984.0824.3033.2163.5665.4017.79.1854.2237.4161.3986.6928.5252.2764.1266.5884.1898.9356.1898.3001,0,.587-.0279.8605-.0838.2735-.0558.5132-.1369.7194-.2429l.2471-1.7387h-1.3858l.106-.7942h1.3946Z"/>
        <path class="cls-9" d="M62.0242,104.6484h.8474l-.8738,6.2491h-.8474l.8738-6.2491Z"/>
        <path class="cls-9" d="M64.6545,104.6484h1.1121l2.7185,5.137h.0178l.7236-5.137h.8474l-.8738,6.2491h-1.0769l-2.7625-5.137h-.0178l-.7148,5.137h-.8474l.8738-6.2491Z"/>
        <path class="cls-9" d="M71.8567,104.6484h4.0337l-.1145.7945h-3.1789l-.2585,1.8623h2.9604l-.1146.7942h-2.9617l-.2851,2.0038h3.3437l-.106.7942h-4.1925l.8738-6.2491Z"/>
        <path class="cls-9" d="M80.0561,104.6484h3.9277l-.1148.7945h-3.0804l-.2736,1.9594h2.8685l-.106.7942h-2.8685l-.3795,2.7009h-.8474l.8738-6.2491Z"/>
        <path class="cls-9" d="M86.0315,104.6484l-.5384,3.8306c-.0295.1943-.0308.3959-.0044.6048.0266.2089.0884.4017.1854.5781.0972.1764.2383.3209.4237.4323.1854.112.425.1679.7194.1679s.5501-.0559.7678-.1679c.2177-.1114.4001-.2559.5472-.4323.1471-.1764.2603-.3692.3399-.5781.0794-.2089.1337-.4105.1632-.6048l.5384-3.8306h.8474l-.5561,3.9629c-.053.3649-.162.6962-.3267.9931-.1647.2972-.3707.5547-.6178.7724-.2471.2177-.5266.3853-.8384.5031-.312.1175-.6385.1764-.9797.1764s-.6518-.0589-.9311-.1764c-.2796-.1178-.5119-.2854-.6972-.5031s-.3194-.4751-.4017-.7724c-.0824-.2969-.0972-.6282-.0442-.9931l.5561-3.9629h.8474Z"/>
        <path class="cls-9" d="M92.8806,105.443h-2.0123l.1147-.7945h4.8721l-.1147.7945h-2.0125l-.759,5.4545h-.8474l.759-5.4545Z"/>
        <path class="cls-9" d="M97.6645,104.6484l-.5384,3.8306c-.0294.1943-.0308.3959-.0044.6048.0266.2089.0884.4017.1854.5781.0972.1764.2383.3209.4237.4323.1854.112.425.1679.7194.1679.2942,0,.5501-.0559.7678-.1679.2177-.1114.4001-.2559.5473-.4323.1471-.1764.2603-.3692.3399-.5781.0794-.2089.1337-.4105.1632-.6048l.5385-3.8306h.8474l-.5561,3.9629c-.053.3649-.162.6962-.3267.9931-.1647.2972-.3707.5547-.6178.7724-.2471.2177-.5266.3853-.8384.5031-.3119.1175-.6385.1764-.9797.1764-.3414,0-.6518-.0589-.9312-.1764-.2796-.1178-.5118-.2854-.6972-.5031s-.3194-.4751-.4017-.7724c-.0824-.2969-.0972-.6282-.0442-.9931l.5561-3.9629h.8473Z"/>
        <path class="cls-9" d="M103.3222,104.6484h2.1978c.4,0,.7223.0547.9664.1633.2441.109.4295.2471.5561.415.1266.1676.2045.3558.2339.5647.0295.2089.0295.4105,0,.6048-.0291.2001-.0908.3926-.1843.5781-.0938.1852-.2183.3531-.3734.5031-.1551.15-.3337.2766-.5356.3795-.2021.1029-.4231.1664-.6631.1898l1.368,2.8508h-1.0591l-1.2093-2.7537h-.9444l-.3795,2.7537h-.8474l.8738-6.2491ZM103.7812,107.4024h1.1121c.1646,0,.3294-.0133.4943-.0398.1646-.0264.3162-.075.4545-.1457.1381-.0704.2544-.1722.3487-.3045.094-.1324.1558-.3045.1854-.5161.0293-.2119.0146-.384-.0442-.5164-.0589-.1324-.1456-.2341-.2603-.3045-.1147-.0708-.2515-.1193-.4105-.1457-.1588-.0264-.3207-.0398-.4855-.0398h-1.1121l-.2824,2.0126Z"/>
        <path class="cls-9" d="M108.8915,104.6484h4.0337l-.1145.7945h-3.1789l-.2585,1.8623h2.9604l-.1146.7942h-2.9617l-.2851,2.0038h3.3437l-.106.7942h-4.1925l.8738-6.2491Z"/>
      </g>
      <g>
        <polygon class="cls-11" points="30.9209 103.0557 28.5952 103.0557 33.3002 107.7606 35.6259 107.7606 30.9209 103.0557"/>
        <polygon class="cls-2" points="30.9209 112.4656 28.5952 112.4656 33.3002 107.7606 35.6259 107.7606 30.9209 112.4656"/>
        <polygon class="cls-7" points="29.9236 104.3841 27.598 104.3841 30.9746 107.7606 33.3002 107.7606 29.9236 104.3841"/>
        <polygon class="cls-8" points="29.9236 111.1372 27.598 111.1372 30.9746 107.7606 33.3002 107.7606 29.9236 111.1372"/>
      </g>
    </g>
    <g>
      <path class="cls-12" d="M112.0512,94.0629c.1491-.1493.2898-.3062.4222-.4716.1321-.1654.2649-.3394.3972-.5211l2.2341,1.2904c-.3478.5131-.753,1.018-1.2166,1.5143-.7941.7941-1.7125,1.4148-2.7553,1.8615-1.0422.4469-2.1344.6702-3.2763.6702-1.1749,0-2.2835-.2276-3.3263-.6822-1.0426-.4555-1.957-1.0718-2.743-1.8496-.7855-.7777-1.4064-1.6882-1.8616-2.7305-.4553-1.0427-.6823-2.1514-.6823-3.3263,0-1.1583.2271-2.2588.6823-3.301.4552-1.0429,1.0761-1.957,1.8616-2.7431.7861-.7864,1.7004-1.4069,2.743-1.8617,1.0428-.4552,2.1514-.6829,3.3263-.6829,1.1419,0,2.2421.2318,3.3011.6951.1493.0663.2941.1327.4348.1987.1407.0664.2771.1406.4094.2233l-1.4147,2.1599c-.0828-.0332-.1577-.0705-.2234-.1116-.0666-.0417-.1408-.0787-.2234-.1117-.3479-.1654-.7156-.2857-1.1046-.3599-.3891-.0749-.7818-.1117-1.1792-.1117-.8277,0-1.6054.1612-2.3329.4836-.7283.3231-1.3659.7572-1.9115,1.3036-.546.5459-.9808,1.1829-1.3033,1.9111-.3228.7283-.4841,1.4975-.4841,2.3084,0,.8277.1613,1.6054.4841,2.3336.3225.7277.7573,1.3653,1.3033,1.9112.5456.5457,1.1832.9762,1.9115,1.2909.7275.3141,1.5053.4716,2.3329.4716s1.5971-.1576,2.3085-.4716c.7119-.3147,1.3404-.7451,1.8863-1.2909"/>
      <path class="cls-12" d="M80.751,89.8179c0-3.6077-1.6054-5.4113-4.8158-5.4113h-4.0956v11.3933h4.0956c3.2104,0,4.8158-1.9937,4.8158-5.982ZM69.2582,81.8253h5.9571c5.4446,0,8.1667,2.664,8.1667,7.9926,0,5.726-2.7057,8.5887-8.1171,8.5887h-6.0067v-16.5813Z"/>
      <path class="cls-12" d="M50.8106,93.3678c0-1.5723-.9431-2.3585-2.8294-2.3585h-1.8122c-3.3921,0-5.0888-1.5885-5.0888-4.7658,0-2.9454,1.6883-4.4182,5.0641-4.4182h5.8086v2.5813h-6.1316c-1.4726,0-2.2092.6286-2.2092,1.8864,0,1.4233.7367,2.135,2.2092,2.135h1.8368c3.7902,0,5.6848,1.6546,5.6848,4.9646,0,3.3426-1.8869,5.0141-5.6596,5.0141h-6.454v-2.582h6.7518c1.8863,0,2.8294-.8188,2.8294-2.4569Z"/>
      <polygon class="cls-12" points="23.6983 98.4066 15.3826 87.2862 15.3826 98.4066 12.8009 98.4066 12.8009 81.8253 14.3894 81.8253 22.7052 92.9458 22.7052 79.2683 25.2374 79.2683 25.2374 98.4066 23.6983 98.4066"/>
      <path class="cls-6" d="M33.1673,87.888c1.2301,0,2.2276.998,2.2276,2.2282s-.9974,2.2277-2.2276,2.2277-2.2283-.9981-2.2283-2.2277.998-2.2282,2.2283-2.2282Z"/>
      <path class="cls-9" d="M61.3201,87.888c1.2304,0,2.2284.998,2.2284,2.2282s-.998,2.2277-2.2284,2.2277-2.2275-.9981-2.2275-2.2277.9974-2.2282,2.2275-2.2282Z"/>
      <path class="cls-4" d="M91.3127,87.888c1.2303,0,2.2283.998,2.2283,2.2282s-.998,2.2277-2.2283,2.2277-2.2284-.9981-2.2284-2.2277.998-2.2282,2.2284-2.2282Z"/>
      <g>
        <polygon class="cls-1" points="55.6678 86.7394 53.3422 86.7394 56.7187 90.116 59.0444 90.116 55.6678 86.7394"/>
        <polygon class="cls-1" points="55.6678 93.4925 53.3422 93.4925 56.7187 90.116 59.0444 90.116 55.6678 93.4925"/>
      </g>
      <g>
        <polygon class="cls-1" points="27.5626 86.7394 25.2369 86.7394 28.6135 90.116 30.9392 90.116 27.5626 86.7394"/>
        <polygon class="cls-1" points="27.5626 93.4925 25.2369 93.4925 28.6135 90.116 30.9392 90.116 27.5626 93.4925"/>
      </g>
      <g>
        <polygon class="cls-1" points="38.7451 86.7394 41.0708 86.7394 37.6942 90.116 35.3686 90.116 38.7451 86.7394"/>
        <polygon class="cls-1" points="38.7451 93.4925 41.0708 93.4925 37.6942 90.116 35.3686 90.116 38.7451 93.4925"/>
      </g>
      <g>
        <polygon class="cls-1" points="66.9326 86.7394 69.2582 86.7394 65.8817 90.116 63.556 90.116 66.9326 86.7394"/>
        <polygon class="cls-1" points="66.9326 93.4925 69.2582 93.4925 65.8817 90.116 63.556 90.116 66.9326 93.4925"/>
      </g>
      <g>
        <polygon class="cls-1" points="85.7077 86.7394 83.382 86.7394 86.7586 90.116 89.0843 90.116 85.7077 86.7394"/>
        <polygon class="cls-1" points="85.7077 93.4925 83.382 93.4925 86.7586 90.116 89.0843 90.116 85.7077 93.4925"/>
      </g>
      <g>
        <polygon class="cls-1" points="96.9175 86.7394 99.2432 86.7394 95.8666 90.116 93.5409 90.116 96.9175 86.7394"/>
        <polygon class="cls-1" points="96.9175 93.4925 99.2432 93.4925 95.8666 90.116 93.5409 90.116 96.9175 93.4925"/>
      </g>
    </g>
  </g>
</svg>