<svg width="152" height="40" viewBox="0 0 152 40" fill="none" xmlns="http://www.w3.org/2000/svg">
<g clip-path="url(#clip0_1097_3339)">
<path d="M141.792 26.0433H139.083V33.0086H138.087V26.0433H135.378V25.1596H141.792V26.0433ZM134.702 32.125V33.0086H129.371V25.1596H134.603V26.0433H130.367V28.5863H134.051V29.416H130.367V32.125H134.702ZM121.854 27.0182V33.0128H120.859V25.1638H121.634L126.501 31.2787V25.1762H127.496V33.0169H126.654L121.854 27.0223V27.0182ZM113.072 29.0841C113.072 29.4824 113.138 29.8682 113.267 30.2416C113.395 30.6149 113.578 30.9427 113.814 31.2331C114.051 31.5193 114.333 31.7475 114.665 31.9176C114.997 32.0877 115.366 32.1706 115.773 32.1706C116.179 32.1706 116.569 32.0794 116.901 31.901C117.233 31.7184 117.515 31.4861 117.747 31.1916C117.98 30.9012 118.158 30.5693 118.278 30.2001C118.399 29.8309 118.461 29.4575 118.461 29.0841C118.461 28.6859 118.394 28.3001 118.266 27.9267C118.137 27.5533 117.955 27.2256 117.714 26.9435C117.473 26.6614 117.191 26.4332 116.864 26.2631C116.536 26.0931 116.171 26.0101 115.773 26.0101C115.354 26.0101 114.976 26.0972 114.644 26.2756C114.312 26.454 114.03 26.6863 113.798 26.9725C113.566 27.2588 113.387 27.5865 113.263 27.9557C113.138 28.325 113.076 28.6983 113.076 29.0841H113.072ZM115.76 33.0667C115.208 33.0667 114.702 32.9547 114.25 32.7307C113.798 32.5067 113.408 32.208 113.084 31.8346C112.761 31.4612 112.508 31.0381 112.333 30.5569C112.155 30.0756 112.068 29.5861 112.068 29.0841C112.068 28.5822 112.163 28.0595 112.35 27.5824C112.537 27.1011 112.798 26.678 113.13 26.3088C113.462 25.9396 113.856 25.6492 114.308 25.4293C114.76 25.2136 115.254 25.1016 115.785 25.1016C116.316 25.1016 116.839 25.2177 117.287 25.45C117.735 25.6824 118.125 25.9852 118.448 26.3627C118.772 26.7402 119.025 27.1634 119.199 27.6405C119.378 28.1175 119.465 28.5988 119.465 29.0966C119.465 29.6193 119.369 30.1213 119.183 30.6025C118.996 31.0837 118.739 31.5027 118.407 31.8678C118.079 32.2329 117.689 32.5233 117.233 32.7431C116.781 32.9589 116.287 33.0709 115.756 33.0709L115.76 33.0667ZM106.306 33.0086V25.1596H111.491V26.0433H107.301V28.6651H110.828V29.4948H107.301V33.0128H106.306V33.0086ZM98.7885 27.0182V33.0128H97.7929V25.1638H98.5687L103.435 31.2787V25.1762H104.431V33.0169H103.588L98.7885 27.0223V27.0182ZM94.918 33.0086V25.1679H95.9136V33.0086H94.918Z" fill="#6E6E6E"/>
<path d="M146.999 10.3379H141.846V23.7666H138.702V10.3379H133.524V7.5791H146.999V10.3379ZM120.643 13.3912V23.7666H117.499V7.5791H119.938L128.372 18.2035V7.59984H131.516V23.7666H128.961L120.639 13.3912H120.643ZM108.123 10.9767L105.796 17.5189H110.38L108.123 10.9767ZM100.465 23.7666L106.849 7.5791H109.405L115.765 23.7666H112.437L110.956 19.7301H105.281L103.8 23.7666H100.473H100.465ZM95.5861 23.7666V7.59984H98.7307V23.7666H95.5861ZM89.9068 15.648C89.9068 14.8722 89.799 14.1586 89.5874 13.5032C89.3758 12.8477 89.0647 12.2877 88.654 11.8147C88.2433 11.3418 87.7371 10.9767 87.1398 10.7195C86.5382 10.4623 85.8579 10.3337 85.0987 10.3337H82.3607V21.0037H85.0987C85.8745 21.0037 86.5631 20.8668 87.1605 20.593C87.762 20.3192 88.264 19.9417 88.6664 19.4646C89.0688 18.9875 89.3758 18.4192 89.5915 17.7679C89.8031 17.1124 89.911 16.4071 89.911 15.648H89.9068ZM79.2161 23.7666V7.5791H85.0987C86.4221 7.5791 87.5795 7.79068 88.5751 8.21797C89.5708 8.64527 90.4046 9.22191 91.0726 9.95205C91.7405 10.6822 92.2424 11.5368 92.5785 12.5158C92.9145 13.4949 93.0804 14.5403 93.0804 15.6521C93.0804 16.8842 92.8938 17.996 92.5204 18.9917C92.147 19.9873 91.6119 20.8378 90.9149 21.5472C90.2138 22.2524 89.3758 22.8 88.3968 23.19C87.4177 23.5758 86.3184 23.7708 85.1028 23.7708H79.2202L79.2161 23.7666ZM69.8446 10.9767L67.5173 17.5189H72.1014L69.8446 10.9767ZM62.1823 23.7666L68.5668 7.5791H71.1223L77.482 23.7666H74.1549L72.6739 19.7301H66.9987L65.5177 23.7666H62.1906H62.1823ZM51.6036 15.5816H55.5488C55.8392 15.5816 56.1089 15.5152 56.3578 15.3783C56.6067 15.2414 56.8265 15.0547 57.0091 14.8183C57.1916 14.5818 57.3368 14.3038 57.4405 13.9844C57.5484 13.665 57.5982 13.3248 57.5982 12.9597C57.5982 12.5947 57.5359 12.2296 57.4156 11.9102C57.2953 11.5907 57.1294 11.3128 56.9261 11.0763C56.7228 10.8398 56.4864 10.6573 56.2209 10.5287C55.9554 10.4001 55.6857 10.3337 55.4119 10.3337H51.6036V15.5774V15.5816ZM48.459 23.7666V7.5791H55.6193C56.3661 7.5791 57.0506 7.73674 57.6811 8.04788C58.3117 8.35902 58.8552 8.76973 59.3115 9.27999C59.7678 9.79026 60.1246 10.3669 60.3818 11.0141C60.639 11.6612 60.7676 12.3084 60.7676 12.9639C60.7676 14.0135 60.5063 14.9676 59.9794 15.8264C59.4567 16.6851 58.7432 17.3032 57.8471 17.6849L61.6554 23.7708H58.1001L54.7025 18.3445H51.6036V23.7708H48.459V23.7666Z" fill="#FECA08"/>
<path d="M0.000412346 29.0721V3.47991C0.000412346 3.47991 -0.065964 1.91177 1.48558 0.74604C1.61833 0.646475 2.42315 0.0366434 3.60962 0.00345528C4.04936 -0.00899027 3.85438 -0.00899027 4.69653 0.057386C4.69653 0.057386 4.95789 0.10302 6.44306 0.356079C7.92823 0.609139 12.4128 1.45129 12.4128 1.45129L20.6559 2.93646L34.0597 5.31356L35.2047 5.51683C35.2047 5.51683 35.7772 5.55002 36.2833 6.24283C36.7895 6.93563 36.7563 7.08497 36.8724 7.37122C36.9886 7.65747 37.0259 7.9769 37.0259 7.9769L37.0384 8.01839L35.9349 8.22167C35.9349 8.22167 35.7938 7.47079 35.2462 7.29655C34.6986 7.11816 31.4379 6.72405 31.4379 6.72405L4.99108 2.77052C4.99108 2.77052 4.65505 2.72903 4.3688 2.72903C4.08255 2.72903 3.6594 2.86178 3.51006 2.99868C3.35656 3.13144 3.14084 3.30982 2.97905 3.69149C2.89608 3.90721 2.91267 3.89476 2.89608 4.05241C2.87948 4.2142 2.89608 11.1007 2.89608 11.1007V28.3461C2.89608 28.3461 2.92097 28.6075 2.98734 28.7527C3.05372 28.8979 3.05372 28.8937 3.12839 29.0057C3.20307 29.1177 3.2653 29.2007 3.36901 29.2961C3.46857 29.3916 3.54325 29.4289 3.66355 29.5036C3.77971 29.5741 3.82534 29.5699 3.90002 29.6031C3.97469 29.6363 4.32317 29.7027 4.61356 29.6695C4.90811 29.6363 6.61315 29.3542 6.61315 29.3542L14.57 28.23L33.5702 25.3633L35.1715 25.1269C35.1715 25.1269 35.4039 25.1352 35.5947 24.907C35.7855 24.6788 35.8892 24.5295 35.9432 24.1229C35.9971 23.7164 35.9598 21.4098 35.9598 21.4098L35.9681 10.802L37.1047 10.632L37.0882 24.0897C37.0882 24.0897 37.0716 24.3221 37.0176 24.6332C36.9595 24.9443 36.8683 25.1642 36.7563 25.4297C36.6401 25.6911 36.5737 25.8072 36.441 26.0064C36.3041 26.2055 36.0178 26.5042 36.0178 26.5042C36.0178 26.5042 35.6279 26.7655 35.5698 26.7904C35.5117 26.8153 35.2006 26.919 34.9392 26.9647C34.6779 27.0145 34.0473 27.1265 33.761 27.1721C33.4789 27.2177 22.9583 29.0597 22.9583 29.0597L6.50529 32.0093L4.58452 32.3619C4.58452 32.3619 4.28998 32.4034 4.11989 32.42C3.9498 32.4366 3.33582 32.3951 3.09935 32.3619C2.86289 32.3287 2.61813 32.2291 2.42315 32.1669C2.23231 32.1088 1.78427 31.8309 1.53951 31.6857C1.29475 31.5405 0.925532 31.1381 0.755442 30.9099C0.585353 30.6817 0.290809 30.1839 0.191244 29.8396C0.0916797 29.4953 0.0128579 29.0721 0.0128579 29.0721" fill="#FECA08"/>
<path d="M6.60547 29.3506V23.4721L6.62621 16.1044C6.62621 16.1044 6.64695 15.8721 6.66355 15.7103C6.68014 15.5485 6.72163 15.3493 6.77556 15.1253C6.82949 14.9013 7.03691 14.4159 7.15307 14.2044C7.27338 13.9886 7.54303 13.6443 7.75876 13.4742C7.97863 13.3041 8.14457 13.1797 8.67973 13.0718C9.21489 12.9639 13.3427 12.2421 13.3427 12.2421L35.8857 8.23049L38.9805 7.65799C38.9805 7.65799 39.9098 7.53354 40.3122 7.59161C40.7146 7.64969 40.4449 7.59161 40.7851 7.66629C41.1211 7.74096 41.3493 7.83638 41.6107 7.96083C41.872 8.08944 42.3615 8.39228 42.7639 8.80298C43.1705 9.21783 43.3281 9.61194 43.4153 9.79033C43.4982 9.96872 43.66 10.4582 43.7181 10.9353C43.7762 11.4165 43.7513 13.6236 43.7513 13.6236L43.7347 36.1666C43.7347 36.1666 43.826 36.6727 43.4733 37.5978C43.1207 38.5271 42.7556 38.7345 42.5648 38.9378C42.3698 39.1411 41.7724 39.6472 41.0631 39.8214C40.3537 39.9998 40.0259 40.0745 38.8229 39.8795C37.6156 39.6845 34.5706 39.1203 34.5706 39.1203L8.53453 34.4823C8.53453 34.4823 7.96618 34.3993 7.43932 33.7895C6.91246 33.1838 6.67599 31.96 6.67599 31.96L7.80439 31.7567C7.80439 31.7567 7.84173 32.3707 8.27317 32.574C8.70462 32.7773 9.20659 32.7939 9.20659 32.7939L17.9226 34.1006L37.4124 37.0005L38.7606 37.2037C38.7606 37.2037 39.6692 37.407 40.2624 36.9341C40.8515 36.4611 40.839 35.9218 40.839 35.4323V11.6406C40.839 11.6406 40.7395 11.0598 40.4491 10.7984C40.1545 10.5371 40.1172 10.4956 39.7397 10.3794C39.3663 10.2591 38.5947 10.4043 38.1466 10.4707C37.6986 10.5371 37.1137 10.6325 37.1137 10.6325L34.4296 11.039L10.364 14.6109L8.61335 14.8764C8.3437 14.9179 8.17361 15.0258 8.01182 15.2581C7.76705 15.6024 7.77535 15.9841 7.75876 16.1583C7.74216 16.3367 7.75461 18.5686 7.75461 18.5686V20.4728L7.80024 29.1971L6.60962 29.3672L6.60547 29.3506Z" fill="#6E6E6E"/>
<path fill-rule="evenodd" clip-rule="evenodd" d="M149.206 2.57507C150.347 2.57507 151.276 3.50019 151.276 4.64518C151.276 5.79017 150.351 6.71529 149.206 6.71529C148.061 6.71529 147.136 5.79017 147.136 4.64518C147.136 3.50019 148.061 2.57507 149.206 2.57507ZM149.206 2.29297C150.504 2.29297 151.558 3.34669 151.558 4.64518C151.558 5.94366 150.504 6.99739 149.206 6.99739C147.907 6.99739 146.854 5.94366 146.854 4.64518C146.854 3.34669 147.907 2.29297 149.206 2.29297Z" fill="#6E6E6E"/>
<path d="M148.991 5.52923H149.264V4.13533H149.269L149.754 5.52923H150.032L150.517 4.13533H150.521V5.52923H150.795V3.75781H150.389L149.895 5.17246H149.891L149.397 3.75781H148.986V5.52923H148.991ZM148.057 5.52923H148.356V3.98598H148.8V3.75781H147.613V3.98598H148.057V5.52923Z" fill="#6E6E6E"/>
</g>
<defs>
<clipPath id="clip0_1097_3339">
<rect width="151.558" height="40" fill="white"/>
</clipPath>
</defs>
</svg>
