<svg width="202" height="55" viewBox="0 0 202 55" fill="none" xmlns="http://www.w3.org/2000/svg">
<g clip-path="url(#clip0_6352_18585)">
<path fill-rule="evenodd" clip-rule="evenodd" d="M63.896 24.108L66.3909 20.5798C67.2604 21.4986 68.3082 22.2305 69.4707 22.731C70.633 23.2315 71.8854 23.4898 73.1512 23.4905C75.668 23.4905 76.8516 22.3703 76.8516 21.1356C76.8516 17.4178 64.6025 20.0197 64.6025 11.9889C64.6025 8.46085 67.6669 5.5105 72.6786 5.5105C76.0523 5.5105 78.8606 6.52041 80.9625 8.46967L78.4323 11.8434C76.7327 10.328 74.5287 9.4994 72.2504 9.51927C70.3296 9.51927 69.2653 10.3351 69.2653 11.6361C69.2653 14.9746 81.4615 12.7166 81.4615 20.6548C81.4615 24.571 78.6576 27.4904 72.9525 27.4904C68.8416 27.4904 65.914 26.1057 63.8916 24.108" fill="#1E2654"/>
<path fill-rule="evenodd" clip-rule="evenodd" d="M94.3901 27.1074L90.31 21.1801L88.4597 23.1515V27.1074H84.4062V5.82422H88.4597V18.5473L94.2929 11.7029H99.2605L93.1714 18.6842L99.4503 27.1074H94.3901Z" fill="#1E2654"/>
<path d="M138.529 5.82422H134.003V27.1074H138.529V5.82422Z" fill="#1E2654"/>
<path fill-rule="evenodd" clip-rule="evenodd" d="M153.057 27.1086V17.8033C153.057 15.6731 151.944 14.9014 150.235 14.9014C149.549 14.9191 148.875 15.0904 148.264 15.4026C147.652 15.7147 147.119 16.1598 146.702 16.7051V27.1086H142.653V11.704H146.702V13.6754C147.382 12.923 148.215 12.3238 149.144 11.9177C150.074 11.5117 151.079 11.308 152.094 11.3204C155.49 11.3204 157.128 13.2299 157.128 16.2288V27.1086H153.057Z" fill="#1E2654"/>
<path fill-rule="evenodd" clip-rule="evenodd" d="M171.695 22.1369V16.6772C171.29 16.1383 170.767 15.6991 170.166 15.3934C169.565 15.0876 168.903 14.9233 168.228 14.9132C165.897 14.9132 164.307 16.7698 164.307 19.4027C164.307 22.0355 165.897 23.9185 168.228 23.9185C168.903 23.9085 169.565 23.7442 170.166 23.4384C170.767 23.1326 171.29 22.6935 171.695 22.1546M171.695 27.1203V25.1357C171.146 25.8768 170.429 26.4777 169.603 26.8892C168.778 27.3008 167.866 27.5114 166.943 27.504C163.097 27.504 160.112 24.5845 160.112 19.4027C160.112 14.3839 163.022 11.3233 166.943 11.3233C167.867 11.31 168.779 11.5176 169.607 11.9288C170.432 12.34 171.149 12.943 171.695 13.6871V5.83716H175.761V27.1027L171.695 27.1203Z" fill="#1E2654"/>
<path fill-rule="evenodd" clip-rule="evenodd" d="M179.803 11.6994H183.86V27.104H179.803V11.6994ZM179.414 7.60243C179.416 7.12534 179.56 6.65972 179.828 6.26448C180.096 5.86924 180.474 5.56212 180.917 5.38196C181.359 5.20181 181.845 5.15669 182.314 5.25235C182.781 5.34798 183.21 5.58008 183.546 5.9193C183.881 6.25851 184.109 6.6896 184.201 7.15804C184.292 7.6265 184.24 8.11126 184.056 8.55104C183.87 8.99083 183.558 9.36588 183.159 9.62878C182.761 9.89167 182.294 10.0306 181.816 10.028C181.498 10.0268 181.185 9.96312 180.892 9.84048C180.598 9.71786 180.334 9.53872 180.111 9.31338C179.887 9.08803 179.711 8.82088 179.592 8.52729C179.471 8.23368 179.411 7.91938 179.414 7.60243Z" fill="#1E2654"/>
<path fill-rule="evenodd" clip-rule="evenodd" d="M197.112 23.4019V21.4615C196.454 20.5796 195.169 20.1165 193.871 20.1165C192.268 20.1165 190.96 20.9632 190.96 22.4405C190.96 23.918 192.285 24.7293 193.871 24.7293C195.169 24.7293 196.454 24.2884 197.112 23.4064M197.112 27.1109V25.488C196.057 26.7845 194.233 27.4945 192.255 27.4945C189.807 27.4945 186.93 25.8363 186.93 22.3965C186.93 18.7405 189.807 17.4131 192.255 17.4131C194.33 17.4131 196.127 18.0878 197.112 19.3138V17.3601C197.112 15.7945 195.76 14.7538 193.742 14.7538C192.094 14.7706 190.513 15.4176 189.327 16.5619L187.732 13.735C189.591 12.1183 191.988 11.2533 194.454 11.3095C197.986 11.3095 201.209 12.7163 201.209 17.1617V27.1065L197.112 27.1109Z" fill="#1E2654"/>
<path fill-rule="evenodd" clip-rule="evenodd" d="M103.522 8.00684L100.528 12.0597H101.491V27.1114H105.54V12.0597H106.52L103.522 8.00684Z" fill="#EF7E22"/>
<path fill-rule="evenodd" clip-rule="evenodd" d="M111.594 2.38037L108.604 6.47735H109.567V27.1078H113.625V6.47735H114.592L111.594 2.38037Z" fill="#009C4D"/>
<path fill-rule="evenodd" clip-rule="evenodd" d="M119.656 2.38037L116.676 6.47735H117.643V27.1078H121.688V6.47735H122.663L119.656 2.38037Z" fill="#1E2654"/>
<path fill-rule="evenodd" clip-rule="evenodd" d="M72.1889 42.4428C72.0266 42.4415 71.8658 42.4733 71.7162 42.536C71.5666 42.5989 71.4314 42.6916 71.319 42.8085C71.2066 42.9253 71.1192 43.0638 71.0623 43.2155C71.0053 43.3673 70.98 43.529 70.9877 43.691V47.6203H69.0492V45.7152H68.992C68.5595 46.0591 68.0213 46.243 67.4685 46.2356C67.1161 46.2426 66.766 46.1772 66.4401 46.0432C66.1141 45.9092 65.8193 45.7096 65.5739 45.4567C65.3287 45.2039 65.1383 44.9033 65.0145 44.5737C64.8905 44.2442 64.8361 43.8925 64.8544 43.5411C64.8544 41.5962 66.4264 40.6523 68.0558 40.8199L68.3826 42.5091C67.464 42.2929 66.7753 42.7428 66.7753 43.5762C66.7749 43.7194 66.8041 43.8613 66.8607 43.9928C66.9173 44.1242 67.0004 44.2428 67.1046 44.3412C67.2087 44.4394 67.332 44.5155 67.4669 44.5644C67.6015 44.6134 67.7449 44.6343 67.888 44.6259C68.0506 44.6241 68.2112 44.5886 68.3595 44.5219C68.5079 44.4551 68.6407 44.3584 68.7497 44.238C68.8588 44.1174 68.9419 43.9757 68.9933 43.8216C69.0449 43.6674 69.064 43.5043 69.0492 43.3425V39.8145H64.042V38.3149H75.9641V39.8145H70.9877V41.4242H71.0408C71.4614 41.0531 72.0076 40.8561 72.5686 40.8728C72.9161 40.8653 73.2615 40.929 73.5835 41.06C73.9054 41.191 74.197 41.3865 74.4404 41.6345C74.6836 41.8826 74.8735 42.1777 74.9982 42.5017C75.1228 42.8259 75.1796 43.172 75.165 43.519C75.165 45.4594 73.6019 46.4031 71.9681 46.2752L71.6502 44.5906C72.5862 44.7934 73.2354 44.3039 73.2354 43.4705C73.2419 43.3325 73.2191 43.1946 73.1686 43.066C73.118 42.9375 73.0408 42.8211 72.9419 42.7244C72.8431 42.6277 72.7249 42.5531 72.595 42.5054C72.4652 42.4575 72.3269 42.4378 72.1889 42.4473" fill="#434444"/>
<path fill-rule="evenodd" clip-rule="evenodd" d="M78.4327 39.7989V47.6268H76.4456V39.7989H74.9972V38.2994H75.6552V38.2245C74.1143 37.5224 72.708 36.5568 71.5 35.371L73.178 34.3215L76.9975 38.2906H77.1079L74.7455 34.639L76.8561 34.198L78.3973 38.3083H79.903V39.8077L78.4327 39.7989Z" fill="#434444"/>
<path fill-rule="evenodd" clip-rule="evenodd" d="M87.0868 38.2906H90.5222V39.79H89.0606V47.618H87.0868V38.2906ZM81.7881 42.3258C81.361 42.2279 80.9821 41.9826 80.7181 41.6335C80.454 41.2842 80.3216 40.8533 80.3441 40.4161C80.3441 39.1989 81.4392 38.145 82.9494 38.145C85.0247 38.145 85.9652 39.5298 85.9652 40.9719C85.9652 43.2254 84.1725 44.2839 82.5475 44.3413V44.3898C83.205 44.7496 83.8122 45.1944 84.3535 45.7127L85.6517 46.8725L84.0311 48.0016L80.6399 44.8307L79.4521 43.9486L80.5605 42.4934C81.0015 42.7135 81.4893 42.8239 81.9822 42.8152C83.1923 42.8152 83.9959 42.1273 83.9959 40.9675C83.9959 40.1164 83.5542 39.6886 83.0552 39.6886C82.9626 39.6787 82.869 39.6883 82.7802 39.7164C82.6914 39.7445 82.6094 39.7906 82.5393 39.8519C82.4692 39.9133 82.4125 39.9884 82.373 40.0725C82.3333 40.1567 82.3115 40.2482 82.309 40.3412C82.3127 40.5316 82.3779 40.7154 82.495 40.8656C82.6119 41.0159 82.7743 41.1243 82.9583 41.1748L81.7881 42.3258Z" fill="#434444"/>
<path fill-rule="evenodd" clip-rule="evenodd" d="M97.203 41.2502V39.7948H89.5508V38.2954H100.634V39.7948H99.1857V47.6228H97.203V42.8203C97.0017 42.6881 96.7682 42.6135 96.5275 42.6041C95.9711 42.6041 95.7282 42.9922 95.7282 43.7286V45.0253H93.9621V43.6184C93.9621 42.9922 93.6574 42.6306 93.1805 42.6306C92.8138 42.6306 92.3504 42.8775 92.3504 43.8521C92.3504 44.7078 92.8138 45.797 94.3461 46.6129L93.1098 47.8918C92.3155 47.5248 91.6405 46.9424 91.1611 46.2112C90.6819 45.4798 90.4176 44.629 90.3985 43.7551C90.3985 41.8543 91.7233 40.9945 92.9685 40.9945C93.3338 40.962 93.6999 41.044 94.0165 41.229C94.3329 41.4139 94.584 41.6926 94.7347 42.0265H94.7701C94.8344 41.7145 95.0053 41.4344 95.2533 41.2342C95.5012 41.0339 95.8111 40.9259 96.13 40.9282C96.4985 40.9035 96.8628 41.0184 97.1501 41.2502H97.203Z" fill="#434444"/>
<path fill-rule="evenodd" clip-rule="evenodd" d="M108.485 38.3H113.02V39.7994H111.55V47.6272H109.62V43.8081H107.28V45.2811H105.483C105.133 44.9912 104.851 44.628 104.658 44.2172C104.465 43.8063 104.365 43.358 104.365 42.9041L105.434 42.1058V40.5226C105.434 39.9802 105.178 39.7816 104.701 39.7816H103.747V38.2822H105.072C106.017 38.2822 107.346 38.6439 107.346 40.408V42.0705H109.62V39.7816H108.481L108.485 38.3Z" fill="#434444"/>
<path fill-rule="evenodd" clip-rule="evenodd" d="M115.484 39.7948V47.6228H113.515V39.7948H112.031V38.2954H116.928V39.7948H115.484Z" fill="#434444"/>
<path fill-rule="evenodd" clip-rule="evenodd" d="M119.634 44.0815C120.044 44.464 120.426 44.8752 120.778 45.3119L122.05 46.8379L120.447 47.8433L116.433 42.8775L117.912 41.7441C118.323 42.3527 118.632 42.582 119.038 42.582C119.343 42.582 119.603 42.4144 119.603 41.8985V39.7948H115.965V38.2954H122.946V39.7948H121.56V41.9427C121.584 42.1938 121.558 42.4474 121.481 42.6879C121.405 42.9287 121.28 43.1512 121.115 43.3422C120.95 43.5332 120.747 43.6887 120.52 43.7991C120.293 43.9095 120.046 43.9725 119.793 43.9844L119.656 44.0065L119.634 44.0815Z" fill="#434444"/>
<path fill-rule="evenodd" clip-rule="evenodd" d="M125.172 47.8125C124.511 47.3766 123.966 46.7882 123.582 46.0973C123.198 45.4066 122.986 44.6334 122.964 43.8434C122.964 41.8058 124.496 41.0519 125.847 41.0519H127.587V39.7816H121.948V38.2822H131.009V39.7816H129.53V47.6096H127.574V42.7233H126.187C126.026 42.708 125.863 42.7281 125.71 42.7823C125.558 42.8364 125.419 42.9232 125.303 43.0366C125.187 43.15 125.098 43.2874 125.041 43.4388C124.984 43.5903 124.961 43.7526 124.973 43.914C125 44.4525 125.16 44.976 125.439 45.4377C125.718 45.8993 126.107 46.2849 126.571 46.5601L125.172 47.8125Z" fill="#434444"/>
<path fill-rule="evenodd" clip-rule="evenodd" d="M146.769 42.4428C146.607 42.4408 146.446 42.4721 146.296 42.5348C146.147 42.5974 146.012 42.6902 145.899 42.8072C145.787 42.9243 145.7 43.0631 145.644 43.2152C145.588 43.3673 145.563 43.5292 145.572 43.691V47.6203H143.621V45.7152H143.568C143.137 46.0591 142.6 46.2431 142.049 46.2356C141.696 46.2433 141.345 46.1782 141.018 46.0446C140.692 45.9109 140.396 45.7115 140.15 45.4587C139.904 45.2058 139.712 44.905 139.588 44.5751C139.463 44.2452 139.408 43.8932 139.426 43.5411C139.426 41.5962 140.993 40.6523 142.654 40.8199L142.954 42.5091C142.049 42.2929 141.355 42.7428 141.355 43.5762C141.353 43.7184 141.381 43.8596 141.436 43.9907C141.491 44.1219 141.572 44.2403 141.675 44.3389C141.777 44.4372 141.899 44.5135 142.033 44.5629C142.166 44.6124 142.309 44.6338 142.451 44.6259C142.614 44.6259 142.776 44.592 142.926 44.5259C143.075 44.46 143.21 44.3635 143.32 44.2427C143.43 44.1217 143.514 43.9794 143.565 43.8243C143.617 43.6694 143.636 43.5053 143.621 43.3425V39.8145H139.205V38.3149H150.558V39.8145H145.572V41.4242H145.621C146.043 41.0587 146.586 40.8623 147.144 40.8728C147.492 40.8659 147.837 40.9302 148.159 41.0613C148.48 41.1925 148.772 41.3881 149.015 41.636C149.258 41.8837 149.448 42.1787 149.573 42.5025C149.698 42.8262 149.755 43.1722 149.741 43.519C149.741 45.4594 148.182 46.4031 146.531 46.2752L146.248 44.5906C147.158 44.7934 147.811 44.3039 147.811 43.4705C147.817 43.333 147.794 43.1959 147.743 43.068C147.693 42.94 147.616 42.8241 147.518 42.7277C147.419 42.6313 147.302 42.5566 147.173 42.5082C147.044 42.4599 146.907 42.4391 146.769 42.4473" fill="#434444"/>
<path fill-rule="evenodd" clip-rule="evenodd" d="M157.759 38.2906H161.168V39.79H159.729V47.618H157.759V38.2906ZM152.46 42.3258C152.034 42.2269 151.656 41.9815 151.393 41.6323C151.13 41.2832 150.998 40.8526 151.021 40.4161C151.021 39.1989 152.129 38.145 153.613 38.145C155.688 38.145 156.611 39.5298 156.611 40.9719C156.611 43.2254 154.845 44.2839 153.202 44.3413V44.3898C153.867 44.7513 154.482 45.1959 155.035 45.7127L156.315 46.8725L154.695 48.0016L151.29 44.8307L150.12 43.9486L151.215 42.4934C151.662 42.7114 152.153 42.8216 152.65 42.8152C153.834 42.8152 154.646 42.1273 154.646 40.9675C154.646 40.1164 154.231 39.6886 153.714 39.6886C153.621 39.6774 153.527 39.6859 153.437 39.7135C153.348 39.741 153.265 39.7871 153.194 39.8485C153.123 39.9101 153.066 39.9857 153.027 40.0705C152.987 40.1553 152.966 40.2475 152.964 40.3412C152.968 40.5332 153.035 40.7186 153.155 40.869C153.274 41.0194 153.44 41.1268 153.626 41.1748L152.46 42.3258Z" fill="#434444"/>
<path fill-rule="evenodd" clip-rule="evenodd" d="M167.857 41.2502V39.7948H160.214V38.2954H171.307V39.7948H169.836V47.6228H167.862V42.8203C167.671 42.6878 167.445 42.6128 167.213 42.6041C166.643 42.6041 166.396 42.9922 166.396 43.7286V45.0253H164.599V43.6184C164.599 42.9922 164.29 42.6306 163.83 42.6306C163.446 42.6306 162.991 42.8775 162.991 43.8521C162.991 44.7078 163.433 45.797 164.992 46.6129L163.738 47.8918C162.95 47.5188 162.281 46.9344 161.806 46.204C161.331 45.4736 161.069 44.6258 161.049 43.7551C161.049 41.8543 162.373 40.9945 163.645 40.9945C164.01 40.962 164.376 41.044 164.693 41.229C165.009 41.4139 165.26 41.6926 165.411 42.0265H165.464C165.522 41.7177 165.686 41.4389 165.928 41.2384C166.17 41.0378 166.474 40.928 166.789 40.9282C167.159 40.9019 167.525 41.0169 167.813 41.2502H167.857Z" fill="#434444"/>
<path fill-rule="evenodd" clip-rule="evenodd" d="M179.145 38.3H183.689V39.7994H182.227V47.6272H180.292V43.8081H177.96V45.2811H176.16C175.81 44.9912 175.528 44.628 175.336 44.2172C175.141 43.8063 175.043 43.358 175.043 42.9041L176.103 42.1058V40.5226C176.103 39.9802 175.842 39.7816 175.356 39.7816H174.088V38.2822H175.749C176.708 38.2822 178.033 38.6439 178.033 40.408V42.0705H180.292V39.7816H179.145V38.3Z" fill="#434444"/>
<path fill-rule="evenodd" clip-rule="evenodd" d="M186.148 39.7948V47.6228H184.17V39.7948H182.721V38.2954H187.6V39.7948H186.148Z" fill="#434444"/>
<path fill-rule="evenodd" clip-rule="evenodd" d="M190.317 44.0815C190.717 44.4687 191.094 44.8796 191.446 45.3119L192.709 46.8379L191.119 47.8433L187.101 42.8775L188.572 41.7441C189.014 42.3527 189.292 42.582 189.694 42.582C190.021 42.582 190.258 42.4144 190.258 41.8985V39.7948H186.615V38.2954H193.593V39.7948H192.233V41.9427C192.257 42.1936 192.23 42.447 192.153 42.6874C192.076 42.9277 191.952 43.15 191.786 43.3409C191.622 43.5317 191.419 43.6872 191.193 43.7977C190.965 43.9085 190.719 43.9719 190.466 43.9844L190.334 44.0065L190.317 44.0815Z" fill="#434444"/>
<path fill-rule="evenodd" clip-rule="evenodd" d="M195.839 47.8125C195.18 47.3749 194.636 46.7862 194.253 46.0958C193.869 45.4052 193.656 44.6329 193.631 43.8434C193.631 41.8058 195.15 41.0519 196.51 41.0519H198.246V39.7816H192.621V38.2822H201.681V39.7816H200.197V47.6096H198.241V42.7233H196.85C196.688 42.7065 196.524 42.7258 196.371 42.7793C196.217 42.8327 196.077 42.9193 195.959 43.0329C195.844 43.1465 195.753 43.2842 195.696 43.4364C195.638 43.5887 195.614 43.7518 195.628 43.914C195.628 44.9768 196.254 45.8984 197.226 46.5601L195.839 47.8125Z" fill="#434444"/>
<path fill-rule="evenodd" clip-rule="evenodd" d="M145.377 53.3754C144.463 53.3496 143.567 53.1176 142.756 52.6969C141.945 52.276 141.239 51.6772 140.692 50.9453L142.057 49.6885C142.94 50.9763 143.991 51.8494 145.351 51.8494C145.982 51.8494 146.583 51.576 146.583 50.8925C146.585 50.7946 146.568 50.6974 146.531 50.6069C146.494 50.5162 146.439 50.4343 146.369 50.3659C146.299 50.2976 146.215 50.2444 146.124 50.2098C146.032 50.1753 145.934 50.1599 145.837 50.1648C145.637 50.1628 145.441 50.2166 145.271 50.3202C145.101 50.4239 144.963 50.5733 144.874 50.7513L143.602 49.64C143.882 49.284 144.246 49.0029 144.661 48.8221C145.077 48.6413 145.531 48.5662 145.982 48.6036C147.404 48.6036 148.504 49.4327 148.504 50.8747C148.504 52.1097 147.621 53.3754 145.386 53.3754" fill="#434444"/>
<path d="M136.718 42.2163H132.854V44.1699H136.718V42.2163Z" fill="#434444"/>
<path fill-rule="evenodd" clip-rule="evenodd" d="M16.6132 24.412C15.1295 24.412 15.1295 22.132 16.6132 22.132C18.0968 22.132 18.0836 24.412 16.6132 24.412ZM43.1071 1.76611H4.64237C4.27464 1.76611 3.92199 1.91201 3.66196 2.17171C3.40194 2.43139 3.25586 2.78362 3.25586 3.15089V35.7856C3.25703 36.1525 3.40348 36.5042 3.66325 36.7636C3.92303 37.0229 4.27501 37.1693 4.64237 37.1705H43.1071C43.4737 37.1681 43.8246 37.0212 44.0834 36.7619C44.3422 36.5026 44.4881 36.1518 44.4893 35.7856V3.15089C44.4893 2.78437 44.3437 2.43283 44.0846 2.17326C43.8256 1.91369 43.4741 1.76728 43.1071 1.76611Z" fill="white"/>
<path fill-rule="evenodd" clip-rule="evenodd" d="M16.6132 24.4142C15.1295 24.4142 15.1295 22.1342 16.6132 22.1342C18.0968 22.1342 18.0836 24.4142 16.6132 24.4142ZM23.7269 6.61504C21.0383 6.60806 18.4081 7.39787 16.1691 8.8845C13.9302 10.3711 12.1833 12.4878 11.1493 14.9664C10.1154 17.4451 9.84105 20.1744 10.361 22.8089C10.8809 25.4434 12.1717 27.8647 14.07 29.7662C15.9683 31.6677 18.3888 32.9639 21.0251 33.4909C23.6614 34.0178 26.395 33.7518 28.8797 32.7265C31.3645 31.7012 33.4889 29.9626 34.984 27.7307C36.479 25.4991 37.2776 22.8745 37.2784 20.1893C37.2813 18.4092 36.9331 16.6461 36.2535 15.0004C35.574 13.3548 34.5765 11.859 33.3181 10.5984C32.0596 9.33789 30.5649 8.3373 28.9192 7.65382C27.2735 6.97033 25.5091 6.61736 23.7269 6.61504Z" fill="#1E2654"/>
<path fill-rule="evenodd" clip-rule="evenodd" d="M27.9566 14.4276L29.5904 12.5797L30.063 12.0329C30.6521 12.3003 31.3135 12.3639 31.9428 12.2138C32.5723 12.0636 33.1336 11.7082 33.5381 11.2038C34.0121 10.6503 34.3381 9.98587 34.4855 9.27255C34.6329 8.55923 34.5972 7.82023 34.3814 7.12447L32.412 9.36039L30.4338 8.83559L29.8598 6.73637L31.8204 4.50487C31.1629 4.3179 30.466 4.32108 29.8102 4.51403C29.1546 4.70698 28.5672 5.0818 28.1163 5.59491C27.6654 6.10802 27.3696 6.73837 27.2632 7.41271C27.1567 8.08707 27.2441 8.77774 27.5151 9.40448L27.5945 9.3207L24.8701 12.4078L27.9566 14.4276Z" fill="#EF7E22"/>
<path fill-rule="evenodd" clip-rule="evenodd" d="M28.0933 14.5701L27.8063 14.2878L30.0142 11.774L30.1421 11.8402C30.6964 12.0863 31.3163 12.1432 31.9062 12.0021C32.496 11.861 33.023 11.5298 33.4054 11.0596C33.8157 10.5798 34.1092 10.0115 34.2623 9.3993C34.4156 8.7871 34.4246 8.14776 34.2884 7.53153L32.4824 9.59986L30.2746 9.02655L29.6299 6.68479L31.4361 4.62527C30.8493 4.51782 30.2446 4.56639 29.6828 4.76612C29.1209 4.96583 28.6214 5.30966 28.2346 5.76308C27.8102 6.24082 27.533 6.83097 27.4367 7.46242C27.3404 8.09387 27.4288 8.73968 27.6914 9.32203L27.6253 9.35291L27.7357 9.45874L27.4487 9.79832L25.0024 12.5811L24.7109 12.2812L27.272 9.37054C27.0152 8.70945 26.9472 7.99009 27.0759 7.29271C27.2045 6.59531 27.5244 5.9473 28.0003 5.42094C28.476 4.89456 29.0887 4.51051 29.7703 4.31161C30.4518 4.11272 31.1753 4.10681 31.8598 4.29451L32.191 4.38712L30.0803 6.79945L30.5838 8.66493L32.3501 9.10594L34.4519 6.70684L34.5623 7.03761C34.7924 7.77099 34.8321 8.55079 34.6777 9.30371C34.5233 10.0566 34.1795 10.758 33.6791 11.3419C33.2618 11.8569 32.6895 12.2242 32.0469 12.3894C31.4046 12.5546 30.7259 12.5089 30.1113 12.2592L29.7271 12.7002L28.0933 14.5701Z" fill="#144575"/>
<path fill-rule="evenodd" clip-rule="evenodd" d="M11.3899 30.3888C11.323 30.4167 11.2513 30.4309 11.1788 30.4306C11.1064 30.4303 11.0347 30.4155 10.968 30.3873C10.9014 30.3588 10.8411 30.3175 10.7907 30.2655C10.7403 30.2135 10.7008 30.1521 10.6746 30.0845C10.6201 29.9486 10.621 29.7969 10.6772 29.6617C10.7333 29.5266 10.8401 29.4188 10.9748 29.3613C11.0416 29.333 11.1134 29.3185 11.186 29.3188C11.2585 29.3191 11.3302 29.3342 11.3967 29.3631C11.4632 29.3919 11.5232 29.4341 11.5729 29.4868C11.6225 29.5396 11.661 29.6019 11.6858 29.6699C11.7403 29.8046 11.7399 29.9553 11.6846 30.0897C11.6293 30.224 11.5235 30.3314 11.3899 30.3888ZM14.1144 24.2588L10.0652 28.5718H10.0387C9.73592 28.8979 9.57323 29.3295 9.58562 29.7738C9.598 30.2183 9.78448 30.6402 10.105 30.9489C10.2621 31.1014 10.4481 31.221 10.652 31.301C10.856 31.3811 11.0738 31.4198 11.2928 31.4148C11.5119 31.4099 11.7277 31.3614 11.9279 31.2724C12.128 31.1834 12.3084 31.0554 12.4585 30.896L12.4938 30.8696L16.5297 26.5565L14.1144 24.2588Z" fill="#EF7E22"/>
<path fill-rule="evenodd" clip-rule="evenodd" d="M11.182 29.506L11.0452 29.5279L10.842 29.7265V30.0087C10.8575 30.0569 10.8827 30.1012 10.9162 30.1392C10.9497 30.177 10.9907 30.2076 11.0366 30.2288C11.0825 30.2502 11.1323 30.2618 11.1829 30.263C11.2335 30.264 11.2838 30.2546 11.3306 30.2353C11.3774 30.2161 11.4197 30.1875 11.4548 30.151C11.49 30.1147 11.5172 30.0714 11.5347 30.0241C11.5523 29.9766 11.5599 29.926 11.5569 29.8757C11.554 29.8252 11.5406 29.7758 11.5176 29.7308C11.4904 29.6642 11.444 29.6073 11.3842 29.5672C11.3244 29.5272 11.254 29.5058 11.182 29.506ZM11.182 30.6173C11.0362 30.6154 10.8942 30.5704 10.7739 30.4881C10.6537 30.4056 10.5606 30.2894 10.5064 30.1542C10.4671 30.0637 10.4467 29.9662 10.4467 29.8675C10.4467 29.7689 10.4671 29.6714 10.5064 29.5809C10.5832 29.4027 10.7254 29.2607 10.9039 29.1839L11.182 29.1267C11.3297 29.1256 11.4742 29.1697 11.5958 29.2534C11.7175 29.337 11.8104 29.4559 11.8621 29.5941C11.9352 29.775 11.9341 29.9772 11.8589 30.1572C11.7837 30.3372 11.6404 30.4804 11.4602 30.5555L11.182 30.6173ZM10.0781 28.8532L10.1841 28.7209L14.114 24.5313L16.26 26.604L12.3566 30.7583L12.3213 30.7849C12.1863 30.9314 12.0226 31.0485 11.8402 31.129C11.6579 31.2095 11.4609 31.2515 11.2615 31.2523C11.0714 31.2545 10.8828 31.2185 10.7068 31.1464C10.5308 31.0745 10.3711 30.9681 10.2371 30.8334C9.97153 30.5805 9.80853 30.2389 9.77921 29.8737C9.74989 29.5083 9.85631 29.1451 10.0781 28.8532ZM11.2615 31.6008C10.7879 31.6021 10.3322 31.4204 9.9898 31.0935C9.63244 30.7499 9.42509 30.2793 9.4127 29.7842C9.4003 29.2888 9.58385 28.8085 9.92357 28.4475V28.4254L14.1008 23.9712L16.7811 26.5468L12.6392 31.0009L12.6083 31.0318C12.4394 31.2142 12.2345 31.3597 12.0065 31.4592C11.7785 31.5586 11.5324 31.6098 11.2836 31.6095" fill="#144575"/>
<path fill-rule="evenodd" clip-rule="evenodd" d="M36.6691 12.4309L6.29395 24.175L7.2963 26.8563L15.6066 23.6678C15.5718 23.503 15.5754 23.3325 15.6172 23.1694C15.6589 23.0061 15.7377 22.8549 15.8474 22.7269C15.9571 22.5991 16.0948 22.4981 16.2498 22.4318C16.4048 22.3656 16.573 22.3358 16.7414 22.3448C16.9185 22.3504 17.0915 22.399 17.2455 22.4867C17.3994 22.5742 17.5296 22.6982 17.6245 22.8475L37.6671 15.1078L39.6056 12.8058L36.6691 12.4309Z" fill="#009C4D"/>
<path fill-rule="evenodd" clip-rule="evenodd" d="M16.6132 24.4161C15.1295 24.4161 15.1295 22.1359 16.6132 22.1359C18.0968 22.1359 18.0836 24.4161 16.6132 24.4161ZM27.8599 14.7138L23.1042 11.8428L19.0373 13.6994L15.9773 15.1107L12.2461 21.4216L14.7542 24.0147L17.8452 27.1988L29.0476 18.3389C29.1183 15.4591 27.882 14.7138 27.882 14.7138" fill="#1E2654"/>
<path fill-rule="evenodd" clip-rule="evenodd" d="M38.4482 12.6138L38.859 13.5487L39.4948 12.702L38.4482 12.6138Z" fill="#1E2654"/>
<path fill-rule="evenodd" clip-rule="evenodd" d="M36.6073 12.2217L6.01562 24.1862L7.29174 27.1234L15.3547 24.0584C15.2973 23.9172 14.9573 23.8159 14.9573 23.6658L7.5611 26.5633L6.63382 24.4288L36.6602 12.6627L39.1727 12.9185L37.592 14.8016L17.4964 22.6825C17.5979 22.8016 17.7436 22.8456 17.7922 22.9911L37.8922 15.1544L40.1 12.5613L36.6073 12.2217Z" fill="#144575"/>
<path fill-rule="evenodd" clip-rule="evenodd" d="M38.6029 12.8557L36.6689 12.666L37.6006 14.8049L38.8282 13.3408L38.6029 12.8557Z" fill="white"/>
<path fill-rule="evenodd" clip-rule="evenodd" d="M37.3706 14.9008L36.4434 12.7575L36.8981 12.5811L37.8122 14.7244L37.3706 14.9008Z" fill="#144575"/>
<path fill-rule="evenodd" clip-rule="evenodd" d="M43.0539 50.5942L42.7315 49.9769H44.4316L44.7981 50.5942H43.0539ZM41.9367 48.3891H43.5176L43.8797 49.0066H42.2238L41.9367 48.3891ZM39.6892 50.5942L39.4463 49.9769H41.1816L41.4776 50.5942H39.6892ZM38.806 48.3891H40.4133L40.718 49.0066H39.0445L38.806 48.3891ZM38.1526 46.7266H39.6363L39.9276 47.3528H38.3998L38.1526 46.7266ZM36.3201 50.6074L36.1434 49.9901H37.9097L38.1305 50.6074H36.3201ZM35.6886 48.4023H37.3224L37.5476 49.0198H35.8608L35.6886 48.4023ZM35.2118 46.7398H36.7219L36.9382 47.366H35.384L35.2118 46.7398ZM32.9641 50.6206L32.8493 50.0033H34.6156L34.7878 50.6206H32.9641ZM29.6082 50.6206L29.5642 50.0033H31.3569L31.4495 50.6206H29.6082ZM29.4581 48.4155H32.549L32.2577 46.753H33.7766L34.3728 49.033H29.5111L29.4581 48.4155ZM29.3389 46.753L29.3831 47.3792H30.9683L30.8755 46.753H29.3389ZM12.9039 50.6338L13.1909 50.0165H28.0937L28.1201 50.6338H12.9039ZM12.1223 49.033H10.4929L10.8727 48.3627H12.4535L12.1223 49.033ZM11.3319 50.6338H9.56562L9.9233 50.0165H11.6366L11.3319 50.6338ZM8.9342 49.033H7.34013L7.7817 48.4155H9.33159L8.9342 49.033ZM7.96717 50.6338H6.24505L6.68663 50.0165H8.36016L7.96717 50.6338ZM5.73284 49.033H4.18294L4.69075 48.3627H6.2009L5.73284 49.033ZM4.59802 50.6338H2.9245L3.41462 50.0165H5.05284L4.59802 50.6338ZM5.97129 46.753H7.34013L6.89857 47.3792H5.48557L5.97129 46.753ZM8.87678 46.753H10.303L9.9233 47.3792H8.46171L8.87678 46.753ZM11.7911 46.753H13.2483L12.9348 47.3792H11.4334L11.7911 46.753ZM13.9636 48.3627H15.5797L15.3413 48.9802H13.6633L13.9636 48.3627ZM14.7452 46.7002H16.2244L15.9772 47.3263H14.4273L14.7452 46.7002ZM17.0546 48.3627H18.6884L18.5117 48.9802H16.8205L17.0546 48.3627ZM17.6419 46.7002H19.152L18.971 47.3263H17.4255L17.6419 46.7002ZM20.1455 48.3627H21.8014L21.691 48.9802H19.9865L20.1455 48.3627ZM20.5872 46.7002H22.1017L21.9957 47.3263H20.4016L20.5872 46.7002ZM23.2365 48.3627H24.9144L24.8747 48.9802H23.157L23.2365 48.3627ZM23.4662 46.7002H25.0028L24.9629 47.3263H23.3955L23.4662 46.7002ZM26.3584 48.3627H28.0186L28.0451 48.9802H26.3274L26.3584 48.3627ZM26.4157 46.7002H27.9568V47.3263H26.3981L26.4157 46.7002ZM42.555 46.7002L42.9215 47.3263H41.4245L41.1155 46.7002H42.555ZM43.7648 46.1709C43.7062 46.0884 43.6288 46.021 43.5389 45.9743C43.4491 45.9275 43.3494 45.9027 43.2482 45.9019H5.13232C5.0389 45.9025 4.94676 45.9234 4.86217 45.9631C4.77759 46.0026 4.70254 46.0599 4.64218 46.1312L0.835889 50.6472C0.756478 50.741 0.70523 50.8555 0.688044 50.9771C0.670858 51.0989 0.688432 51.2228 0.738744 51.3351C0.791003 51.4442 0.872981 51.5365 0.975287 51.6012C1.07759 51.666 1.19608 51.7006 1.31719 51.7011H46.4274C46.5421 51.6991 46.654 51.6665 46.7518 51.6068C46.8497 51.547 46.9297 51.4624 46.9838 51.3615C47.0394 51.2593 47.0652 51.1435 47.0582 51.0273C47.0512 50.9112 47.0116 50.7993 46.9441 50.7044L43.7648 46.1709Z" fill="#1E2654"/>
<path fill-rule="evenodd" clip-rule="evenodd" d="M15.4872 43.9244C14.8734 44.533 15.8272 44.8813 15.8272 44.8813H31.7236C31.7236 44.8813 32.6861 44.533 32.0767 43.9244C31.4673 43.3158 29.8071 42.8703 29.6305 40.2419C29.6305 40.0435 29.6305 39.2233 29.6305 38.1516H17.9379C17.9379 39.2233 17.9379 40.0435 17.9379 40.2419C17.77 42.8881 16.101 43.3291 15.5004 43.9244" fill="#1E2654"/>
<path fill-rule="evenodd" clip-rule="evenodd" d="M4.89854 2.00816C4.53587 2.01049 4.18883 2.15602 3.9332 2.41298C3.67757 2.66994 3.5341 3.01748 3.5341 3.37971V35.5469C3.53645 35.9064 3.68137 36.2504 3.93712 36.5033C4.19288 36.7563 4.5386 36.8976 4.89854 36.8965H42.8201C42.9993 36.8965 43.1767 36.8612 43.3424 36.7927C43.5078 36.7243 43.6583 36.6239 43.7849 36.4973C43.9117 36.3708 44.0122 36.2206 44.0807 36.0553C44.1492 35.8899 44.1845 35.7127 44.1845 35.5337V3.37971C44.1812 3.01935 44.0363 2.67474 43.7812 2.41992C43.5259 2.16511 43.1809 2.02043 42.8201 2.01698L4.89854 2.00816ZM42.8201 38.2196H4.89854C4.54838 38.2196 4.20169 38.1503 3.87852 38.0156C3.55532 37.881 3.26208 37.6837 3.01571 37.4351C2.76935 37.1867 2.57475 36.8918 2.44317 36.5677C2.3116 36.2437 2.24566 35.8967 2.24916 35.5469V3.37971C2.24916 2.67793 2.52828 2.00489 3.02514 1.50865C3.52201 1.01242 4.19588 0.733643 4.89854 0.733643H42.8201C43.5228 0.733643 44.1966 1.01242 44.6936 1.50865C45.1904 2.00489 45.4696 2.67793 45.4696 3.37971V35.5469C45.473 35.8967 45.4071 36.2437 45.2755 36.5677C45.144 36.8918 44.9493 37.1867 44.703 37.4351C44.4566 37.6837 44.1634 37.881 43.8402 38.0156C43.5171 38.1503 43.1703 38.2196 42.8201 38.2196Z" fill="#1E2654"/>
<path fill-rule="evenodd" clip-rule="evenodd" d="M4.89854 2.00816C4.53587 2.01049 4.18883 2.15602 3.9332 2.41298C3.67757 2.66994 3.5341 3.01748 3.5341 3.37971V35.5469C3.53645 35.9064 3.68137 36.2504 3.93712 36.5033C4.19288 36.7563 4.5386 36.8976 4.89854 36.8965H42.8201C42.9993 36.8965 43.1767 36.8612 43.3424 36.7927C43.5078 36.7243 43.6583 36.6239 43.7849 36.4973C43.9117 36.3708 44.0122 36.2206 44.0807 36.0553C44.1492 35.8899 44.1845 35.7127 44.1845 35.5337V3.37971C44.1812 3.01935 44.0363 2.67474 43.7812 2.41992C43.5259 2.16511 43.1809 2.02043 42.8201 2.01698L4.89854 2.00816ZM42.8201 38.2196H4.89854C4.54838 38.2196 4.20169 38.1503 3.87852 38.0156C3.55532 37.881 3.26208 37.6837 3.01571 37.4351C2.76935 37.1867 2.57475 36.8918 2.44317 36.5677C2.3116 36.2437 2.24566 35.8967 2.24916 35.5469V3.37971C2.24916 2.67793 2.52828 2.00489 3.02514 1.50865C3.52201 1.01242 4.19588 0.733643 4.89854 0.733643H42.8201C43.5228 0.733643 44.1966 1.01242 44.6936 1.50865C45.1904 2.00489 45.4696 2.67793 45.4696 3.37971V35.5469C45.473 35.8967 45.4071 36.2437 45.2755 36.5677C45.144 36.8918 44.9493 37.1867 44.703 37.4351C44.4566 37.6837 44.1634 37.881 43.8402 38.0156C43.5171 38.1503 43.1703 38.2196 42.8201 38.2196Z" fill="#1E2654"/>
<path fill-rule="evenodd" clip-rule="evenodd" d="M35.8259 36.8532C35.9716 36.7122 35.5522 36.699 35.7068 36.54C35.583 36.399 30.2225 36.8664 30.1429 36.7826C28.2443 34.8643 31.3263 37.9911 29.4453 36.0683C27.37 33.9646 25.3079 31.8566 23.2193 29.7529C23.0156 29.6044 22.7821 29.502 22.5349 29.4531C21.8798 29.317 21.2375 29.1268 20.614 28.8842C20.101 28.554 19.6333 28.1582 19.2231 27.7066C18.6712 27.1996 18.1412 26.6614 17.6025 26.1587C18.3047 25.4355 19.2099 24.9679 19.3688 23.9184L19.5631 23.742C19.8767 23.5083 20.1901 23.3009 20.4861 23.0232C20.743 22.8489 20.9484 22.6087 21.0805 22.3278C21.2125 22.0469 21.2664 21.7356 21.2366 21.4268L21.3956 21.1489C21.9167 20.6109 22.4378 20.0772 22.9366 19.5568C23.2855 19.4994 23.6344 19.4422 24.0052 19.3892C23.9744 19.6112 23.9089 19.827 23.8109 20.0287C23.6779 20.2842 23.6156 20.5706 23.6304 20.8581C23.6451 21.1457 23.7364 21.4242 23.8948 21.6648C24.4159 22.6659 25.0164 23.6229 25.5993 24.5755C25.7008 24.7342 25.9526 24.8048 26.1424 24.9151C26.1424 24.7122 26.1909 24.4741 26.0983 24.3065C25.6568 23.473 25.14 22.6791 24.6764 21.85C24.4027 21.409 24.067 20.9371 24.2878 20.3551C24.5086 19.7729 24.8178 19.0894 25.1092 18.4631C25.6479 17.3385 25.6611 17.3385 24.7074 16.4962L24.5838 16.3904C24.4317 16.2226 24.2255 16.1135 24.0012 16.0821C23.7768 16.0507 23.5485 16.0989 23.3562 16.2184C22.9543 16.43 22.5215 16.6241 22.1064 16.8358C21.8909 16.9675 21.6349 17.0168 21.3857 16.9746C21.1366 16.9325 20.911 16.8017 20.7509 16.6065C20.5479 16.43 20.3536 16.2448 20.1636 16.0552C19.8147 15.7377 19.8678 15.4378 20.199 15.1511C21.1219 14.3882 22.0403 13.6252 22.9587 12.8755C23.1145 12.7248 23.3202 12.6366 23.5367 12.6277C23.7533 12.6188 23.9657 12.6897 24.1334 12.827C25.3107 13.612 26.4882 14.3852 27.6658 15.1467C27.8896 15.2763 28.0782 15.4585 28.2152 15.6776C28.3522 15.8967 28.4334 16.1459 28.4518 16.4036C28.6329 17.9647 28.7477 19.5304 29.0259 21.0739C29.1528 21.7555 29.1356 22.4559 28.9751 23.1304C28.8147 23.8049 28.5145 24.4385 28.0941 24.99C27.947 25.2354 27.78 25.4685 27.5951 25.6868C27.2949 25.9956 27.3964 26.2337 27.679 26.4851C28.7874 27.4862 29.8868 28.4961 30.9731 29.4928C32.5849 30.9746 34.1921 32.4299 35.8304 33.9029C35.9672 34.0263 36.1218 34.1409 36.2719 34.2557C36.1543 33.9924 35.9811 33.7578 35.7641 33.5676C33.5562 31.3626 31.3087 29.2149 29.0832 27.0363C28.7652 26.7365 28.2575 26.4277 28.2001 26.0749C28.1426 25.7221 28.5755 25.3121 28.783 24.9326C28.9905 24.5534 29.1671 24.1787 29.3703 23.786C29.4321 23.6714 29.5203 23.5567 29.6131 23.4113C33.8609 27.2392 39.3276 31.9844 43.5754 35.7993L35.8259 36.8532Z" fill="white"/>
<path fill-rule="evenodd" clip-rule="evenodd" d="M17.1076 21.4234C17.6507 21.9481 18.1939 22.4729 18.7326 22.9845C19.1344 23.3594 19.3463 23.3373 19.7084 22.936C19.9468 22.6759 20.1896 22.4025 20.4503 22.1686C20.524 22.1171 20.5843 22.0484 20.6258 21.9686C20.6673 21.8888 20.6891 21.8001 20.6891 21.7101C20.6891 21.6201 20.6673 21.5314 20.6258 21.4515C20.5843 21.3717 20.524 21.3031 20.4503 21.2514C19.3419 20.1576 18.2424 19.086 17.0855 18.0232C17.0298 17.9595 16.9606 17.9091 16.883 17.8755C16.8053 17.8419 16.7211 17.826 16.6366 17.829C16.552 17.8318 16.4691 17.8536 16.394 17.8925C16.3189 17.9315 16.2534 17.9867 16.2023 18.054C15.9374 18.3275 15.6813 18.6054 15.4252 18.8698C15.3486 18.9251 15.2862 18.9977 15.2432 19.0816C15.2002 19.1656 15.1777 19.2585 15.1777 19.3528C15.1777 19.4472 15.2002 19.5402 15.2432 19.624C15.2862 19.708 15.3486 19.7806 15.4252 19.8358C15.9815 20.3517 16.5335 20.8897 17.0811 21.4234" fill="white"/>
<path fill-rule="evenodd" clip-rule="evenodd" d="M18.7455 18.8639C19.2974 19.3887 19.8714 19.9091 20.4057 20.456C20.4599 20.5333 20.5319 20.5965 20.6156 20.64C20.6995 20.6837 20.7925 20.7064 20.887 20.7064C20.9814 20.7064 21.0746 20.6837 21.1583 20.64C21.2422 20.5965 21.3143 20.5333 21.3684 20.456C21.6245 20.2045 21.8717 19.9355 22.1146 19.6886C22.1843 19.6302 22.2402 19.5573 22.2786 19.4752C22.3171 19.3928 22.3369 19.3032 22.3369 19.2123C22.3369 19.1215 22.3171 19.0318 22.2786 18.9495C22.2402 18.8672 22.1843 18.7945 22.1146 18.7361C21.0253 17.6599 19.92 16.5927 18.7984 15.5343C18.7358 15.4618 18.657 15.4048 18.5686 15.3677C18.4802 15.3305 18.3844 15.3143 18.2885 15.3203C18.1927 15.3263 18.0998 15.3543 18.0165 15.4021C17.9334 15.4499 17.8626 15.5163 17.8093 15.596C17.5532 15.8695 17.2927 16.1296 17.0322 16.4031C16.9651 16.4564 16.9114 16.5247 16.8754 16.6024C16.8393 16.6801 16.8219 16.7651 16.8245 16.8507C16.827 16.9363 16.8495 17.0201 16.8902 17.0955C16.9308 17.1709 16.9885 17.2358 17.0587 17.2851C17.6239 17.8054 18.1758 18.3391 18.7277 18.8816" fill="white"/>
<path fill-rule="evenodd" clip-rule="evenodd" d="M17.1647 22.2685L17.0057 22.0745C16.5641 21.6335 16.1226 21.2146 15.681 20.8001C15.1511 20.2974 14.9038 20.3017 14.4005 20.8397C14.2106 21.0338 14.034 21.2454 13.8441 21.4262C13.7649 21.4801 13.7 21.5524 13.6552 21.6368C13.6103 21.7215 13.5869 21.8157 13.5869 21.9114C13.5869 22.0071 13.6103 22.1012 13.6552 22.1859C13.7 22.2704 13.7649 22.3426 13.8441 22.3965C14.8199 23.3579 15.8135 24.3061 16.8202 25.2675C16.8712 25.3294 16.9352 25.3791 17.0078 25.4134C17.0803 25.4475 17.1595 25.4654 17.2397 25.4654C17.3199 25.4654 17.3992 25.4475 17.4717 25.4134C17.5442 25.3791 17.6082 25.3294 17.6593 25.2675C17.9462 24.9808 18.2023 24.7029 18.4762 24.4251C18.8338 24.0768 18.741 23.7681 18.4231 23.4593C18.1052 23.1506 17.8315 22.9037 17.54 22.6126L17.1647 22.2685Z" fill="white"/>
<path fill-rule="evenodd" clip-rule="evenodd" d="M21.7178 17.5933C22.1593 18.0343 22.5566 18.4003 22.9584 18.7752C23.0042 18.8363 23.0635 18.886 23.1316 18.9201C23.1998 18.9544 23.2752 18.9721 23.3516 18.9721C23.4278 18.9721 23.5032 18.9544 23.5713 18.9201C23.6395 18.886 23.6988 18.8363 23.7445 18.7752C24.0504 18.4744 24.3338 18.1516 24.5922 17.8093C24.6554 17.7061 24.6919 17.5888 24.6989 17.4682C24.7058 17.3474 24.6829 17.2268 24.6321 17.1169C24.4465 16.8347 24.2258 16.4466 23.7489 16.6759C23.0909 16.9891 22.4241 17.3022 21.7221 17.6285" fill="white"/>
<path fill-rule="evenodd" clip-rule="evenodd" d="M19.2893 15.2878C19.9251 14.7365 20.5123 14.225 21.0864 13.7178L21.0289 13.5679C20.7993 13.6164 20.477 13.5679 20.3666 13.7178C19.9691 14.1809 19.2671 14.4675 19.2715 15.279" fill="white"/>
</g>
<defs>
<clipPath id="clip0_6352_18585">
<rect width="201" height="53.5327" fill="white" transform="translate(0.681641 0.733643)"/>
</clipPath>
</defs>
</svg>
